<svg width="512" height="512" viewBox="0 0 512 512" fill="none" xmlns="http://www.w3.org/2000/svg">
<rect width="512" height="512" fill="#232D37"/>
<path fill-rule="evenodd" clip-rule="evenodd" d="M120.811 431.415C80.7823 391.632 56 336.526 56 275.631C56 154.332 154.332 56 275.631 56C336.311 56 391.243 80.6077 430.993 120.388L430.934 120.328L401.813 149.449C369.478 116.833 324.639 96.6317 275.082 96.6317C176.527 96.6317 96.6317 176.527 96.6317 275.082C96.6317 324.639 116.833 369.478 149.45 401.814L120.33 430.934L120.811 431.415ZM178.568 372.696C153.726 347.855 138.362 313.537 138.362 275.631C138.362 199.819 199.819 138.362 275.631 138.362C313.537 138.362 347.854 153.726 372.695 178.567C397.536 203.408 412.9 237.725 412.9 275.631H371.169C371.17 275.448 371.17 275.265 371.17 275.082C371.17 222.014 328.15 178.993 275.082 178.993C222.014 178.993 178.993 222.014 178.993 275.082C178.993 301.896 189.976 326.144 207.689 343.574L178.568 372.696ZM330.539 275.631C330.539 245.306 305.956 220.723 275.631 220.723C245.306 220.723 220.723 245.306 220.723 275.631C220.723 290.794 226.869 304.521 236.806 314.457L265.941 285.323C263.127 282.809 261.355 279.152 261.355 275.082C261.355 267.501 267.501 261.355 275.082 261.355C282.663 261.355 288.809 267.501 288.809 275.082C288.809 275.266 288.805 275.449 288.798 275.631H330.539Z" fill="#D796D7"/>
</svg>
